<svg xmlns="http://www.w3.org/2000/svg" viewBox="0 0 1600 900" role="img" aria-labelledby="title desc">
  <title id="title">Protopipe presentation placeholder background</title>
  <desc id="desc">Dark technical grid with connected decision lanes.</desc>
  <rect width="1600" height="900" fill="#081a17"/>
  <rect y="620" width="1600" height="280" fill="#0b0c0e"/>
  <g stroke="rgba(255,255,255,0.11)" stroke-width="1">
    <path d="M120 150h1360"/>
    <path d="M120 270h1360"/>
    <path d="M120 390h1360"/>
    <path d="M120 510h1360"/>
    <path d="M260 90v560"/>
    <path d="M520 90v560"/>
    <path d="M780 90v560"/>
    <path d="M1040 90v560"/>
    <path d="M1300 90v560"/>
  </g>
  <g fill="none" stroke="#f7436e" stroke-width="5" stroke-linecap="round" stroke-linejoin="round">
    <path d="M190 510C310 360 420 420 520 270S720 130 840 270s220 300 360 120 230-90 320-10"/>
  </g>
  <g fill="#41d6c3">
    <circle cx="190" cy="510" r="9"/>
    <circle cx="520" cy="270" r="9"/>
    <circle cx="840" cy="270" r="9"/>
    <circle cx="1200" cy="390" r="9"/>
    <circle cx="1520" cy="380" r="9"/>
  </g>
  <g fill="rgba(255,255,255,0.08)">
    <rect x="980" y="680" width="420" height="22"/>
    <rect x="980" y="725" width="300" height="22"/>
    <rect x="980" y="770" width="360" height="22"/>
  </g>
</svg>

