<?xml version="1.0" encoding="UTF-8" standalone="no"?>
<svg
   width="228"
   height="66"
   viewBox="0 0 228 66"
   version="1.1"
   id="svg4"
   xmlns="http://www.w3.org/2000/svg"
   xmlns:svg="http://www.w3.org/2000/svg">
  <defs
     id="defs4" />
  <!-- Parameters -->
  <!-- Border as filled frame (deterministic thickness) -->
  <path
     id="rect1"
     style="fill:#081a17"
     d="M 0,0 H 228 V 66 H 0 Z" />
  <!-- Inner content area inset by border (3px) -->
  <g
     transform="translate(3,3)"
     id="g4">
    <!-- inner size: 222 x 60 -->
    <!-- Cells -->
    <path
       id="rect2"
       style="fill:#081a17"
       d="M 0,0 H 55 V 60 H 0 Z" />
    <path
       id="rect3"
       style="fill:#f12d5c"
       d="M 55,0 H 222 V 60 H 55 Z" />
    <!-- Text -->
    <path
       d="m 36.289062,15.058594 4.394532,4.394531 v 7.910156 l -4.394532,4.394531 H 23.105469 v -5.273437 h 8.789062 l 1.757813,-1.757813 V 22.089844 L 31.894531,20.332031 H 21.347656 v 19.335938 h -7.03125 V 15.058594 Z"
       id="text3"
       style="font-weight:bold;font-size:36px;font-family:'Polentical Neon';dominant-baseline:middle;text-anchor:middle;fill:#de083d"
       aria-label="P" />
    <path
       d="M 80.820312,20.039062 83.75,22.96875 v 5.273437 l -2.929688,2.929688 H 72.03125 V 27.65625 h 5.859375 L 79.0625,26.484375 v -1.757813 l -1.171875,-1.171875 h -7.03125 v 12.890625 h -4.6875 v -16.40625 z m 16.992188,7.03125 h -5.859375 l -1.171875,1.171875 v 8.203125 h -4.6875 v -9.960937 l 2.929687,-2.929688 h 7.617188 z m 17.57813,-0.585937 v 7.03125 l -2.92969,2.929687 h -9.375 l -2.92969,-2.929687 v -7.03125 l 2.92969,-2.929688 h 9.375 z m -10.54688,1.757812 v 3.515625 l 1.17188,1.171875 h 3.51562 l 1.17188,-1.171875 v -3.515625 l -1.17188,-1.171875 h -3.51562 z m 15.23438,-4.6875 v -2.34375 l 4.6875,-1.171875 v 3.515625 h 4.68749 v 3.515625 h -4.68749 v 4.6875 l 1.17187,1.171875 h 3.51562 l -1.17187,3.515625 h -5.27344 l -2.92968,-2.929687 v -6.445313 h -2.34375 v -3.515625 z m 26.95312,2.929688 v 7.03125 l -2.92969,2.929687 h -9.375 l -2.92969,-2.929687 v -7.03125 l 2.92969,-2.929688 h 9.375 z m -10.54688,1.757812 v 3.515625 l 1.17188,1.171875 h 3.51562 l 1.17188,-1.171875 v -3.515625 l -1.17188,-1.171875 h -3.51562 z m 28.125,-1.757812 V 30 l -2.92968,2.929687 h -6.44532 V 29.414062 H 158.75 l 1.17187,-1.171875 -1.17187,-1.171875 h -3.51563 l -1.17187,1.171875 v 8.203125 h -4.6875 v -9.960937 l 2.92969,-2.929688 h 9.375 z m 7.03125,-0.585938 v 10.546875 h -4.6875 V 25.898437 Z m 0,-5.859375 v 3.515625 h -4.6875 v -3.515625 z m 17.57813,6.445313 V 30 l -2.92969,2.929687 h -6.44531 v -3.515625 h 3.51562 l 1.17188,-1.171875 -1.17188,-1.171875 h -3.51562 l -1.17188,1.171875 v 8.203125 h -4.6875 v -9.960937 l 2.92969,-2.929688 h 9.375 z m 17.57812,0 v 2.34375 l -2.92968,2.929687 h -6.44532 v -3.515625 h 3.51563 l 0.58594,-0.585937 -0.58594,-0.585938 h -3.51563 L 196.25,28.242187 v 3.515625 l 1.17187,1.171875 h 8.20313 l -1.17188,3.515625 h -9.96093 l -2.92969,-2.929687 v -7.03125 l 2.92969,-2.929688 h 9.375 z"
       id="text4"
       style="font-weight:bold;font-size:24px;font-family:'Polentical Neon';dominant-baseline:middle;fill:#081a17"
       aria-label="Protopipe" />
  </g>
</svg>
