<svg xmlns="http://www.w3.org/2000/svg" xmlns:xlink="http://www.w3.org/1999/xlink" contentStyleType="text/css" data-diagram-type="DESCRIPTION" height="1228.125px" preserveAspectRatio="none" style="width:1650px;height:1228px;background:#081A17;" version="1.1" viewBox="0 0 1650 1228" width="1650px" zoomAndPan="magnify"><title>Protopipe - Example</title><defs/><g><rect fill="#081A17" height="1228.125" style="stroke:none;stroke-width:1.5625;" width="1650" x="0" y="0"/><g class="title" data-source-line="12"><text fill="#F2F4F3" font-family="'Polentical Neon Bold'" font-size="34.375" font-weight="bold" lengthAdjust="spacing" textLength="392.6941" x="618.4655" y="63.1577">Protopipe - Example</text></g><!--cluster Kubernetes Cluster--><g class="cluster" data-entity="Kubernetes Cluster" data-source-line="19" data-uid="ent0006" id="cluster_Kubernetes Cluster"><polygon fill="#0D2622" points="99.9375,537.9678,115.5625,522.3428,1624.9375,522.3428,1624.9375,1187.3896,1609.3125,1203.0146,99.9375,1203.0146,99.9375,537.9678" style="stroke:#2B3A37;stroke-width:1.5625;"/><line style="stroke:#2B3A37;stroke-width:1.5625;" x1="1609.3125" x2="1624.9375" y1="537.9678" y2="522.3428"/><line style="stroke:#2B3A37;stroke-width:1.5625;" x1="99.9375" x2="1609.3125" y1="537.9678" y2="537.9678"/><line style="stroke:#2B3A37;stroke-width:1.5625;" x1="1609.3125" x2="1609.3125" y1="537.9678" y2="1203.0146"/><text fill="#F2F4F3" font-family="'Helvetica Neue'" font-size="21.875" font-weight="bold" lengthAdjust="spacing" textLength="238.3713" x="737.0019" y="578.5851">Kubernetes Cluster</text></g><!--entity Operator--><g class="entity" data-entity="Operator" data-source-line="20" data-uid="ent0007" id="entity_Operator"><rect fill="#0D2622" height="113.4277" rx="14.0625" ry="14.0625" style="stroke:#2B3A37;stroke-width:0.7813;" width="336.5036" x="497.2969" y="616.0928"/><text fill="#F2F4F3" font-family="'Helvetica Neue'" font-size="21.875" lengthAdjust="spacing" textLength="209.7031" x="528.5469" y="667.6476">Protopipe Operator</text><text fill="#F2F4F3" font-family="'Helvetica Neue'" font-size="21.875" lengthAdjust="spacing" textLength="274.0036" x="528.5469" y="693.1115">(CRD -&gt; Runtime Config)</text></g><!--entity Composer--><g class="entity" data-entity="Composer" data-source-line="21" data-uid="ent0008" id="entity_Composer"><rect fill="#0D2622" height="113.4277" rx="14.0625" ry="14.0625" style="stroke:#2B3A37;stroke-width:0.7813;" width="352.2797" x="489.4219" y="843.3428"/><text fill="#F2F4F3" font-family="'Helvetica Neue'" font-size="21.875" lengthAdjust="spacing" textLength="256.2302" x="520.6719" y="894.8976">Protopipe FE Composer</text><text fill="#F2F4F3" font-family="'Helvetica Neue'" font-size="21.875" lengthAdjust="spacing" textLength="289.7797" x="520.6719" y="920.3615">(Page SSR + Composition)</text></g><!--entity Bridge--><g class="entity" data-entity="Bridge" data-source-line="22" data-uid="ent0009" id="entity_Bridge"><rect fill="#0D2622" height="113.4277" rx="14.0625" ry="14.0625" style="stroke:#2B3A37;stroke-width:0.7813;" width="276.8494" x="125.5625" y="1057.5615"/><text fill="#F2F4F3" font-family="'Helvetica Neue'" font-size="21.875" lengthAdjust="spacing" textLength="174.1348" x="156.8125" y="1109.1164">Message Bridge</text><text fill="#F2F4F3" font-family="'Helvetica Neue'" font-size="21.875" lengthAdjust="spacing" textLength="214.3494" x="156.8125" y="1134.5803">(/messages polling)</text></g><!--entity Overwatch--><g class="entity" data-entity="Overwatch" data-source-line="23" data-uid="ent0010" id="entity_Overwatch"><rect fill="#0D2622" height="113.4277" rx="14.0625" ry="14.0625" style="stroke:#2B3A37;stroke-width:0.7813;" width="418.0756" x="456.5156" y="1057.5615"/><text fill="#F2F4F3" font-family="'Helvetica Neue'" font-size="21.875" lengthAdjust="spacing" textLength="118.3792" x="487.7656" y="1109.1164">Overwatch</text><text fill="#F2F4F3" font-family="'Helvetica Neue'" font-size="21.875" lengthAdjust="spacing" textLength="355.5756" x="487.7656" y="1134.5803">(OTel Collector + Event Archive)</text></g><!--entity BE--><g class="entity" data-entity="BE" data-source-line="25" data-uid="ent0011" id="entity_BE"><rect fill="#0D2622" height="113.4277" rx="14.0625" ry="14.0625" style="stroke:#2B3A37;stroke-width:0.7813;" width="256.0104" x="929.7344" y="1057.5615"/><text fill="#F2F4F3" font-family="'Helvetica Neue'" font-size="21.875" lengthAdjust="spacing" textLength="193.5104" x="960.9844" y="1109.1164">Backend Services</text><text fill="#F2F4F3" font-family="'Helvetica Neue'" font-size="21.875" lengthAdjust="spacing" textLength="154.9088" x="960.9844" y="1134.5803">(Domain APIs)</text></g><!--entity Store--><g class="entity" data-entity="Store" data-source-line="26" data-uid="ent0012" id="entity_Store"><path d="M1239.7813,1066.1553 C1239.7813,1050.5303 1420.2469,1050.5303 1420.2469,1050.5303 C1420.2469,1050.5303 1600.7126,1050.5303 1600.7126,1066.1553 L1600.7126,1162.3955 C1600.7126,1178.0205 1420.2469,1178.0205 1420.2469,1178.0205 C1420.2469,1178.0205 1239.7813,1178.0205 1239.7813,1162.3955 L1239.7813,1066.1553" fill="#0D2622" style="stroke:#2B3A37;stroke-width:0.7813;"/><path d="M1239.7813,1066.1553 C1239.7813,1081.7803 1420.2469,1081.7803 1420.2469,1081.7803 C1420.2469,1081.7803 1600.7126,1081.7803 1600.7126,1066.1553" fill="none" style="stroke:#2B3A37;stroke-width:0.7813;"/><text fill="#F2F4F3" font-family="'Helvetica Neue'" font-size="21.875" lengthAdjust="spacing" textLength="298.4314" x="1271.0313" y="1123.9601">Shared Session/State Store</text><text fill="#F2F4F3" font-family="'Helvetica Neue'" font-size="21.875" lengthAdjust="spacing" textLength="118.8065" x="1271.0313" y="1149.424">(clustered)</text></g><!--entity User--><g class="entity" data-entity="User" data-source-line="14" data-uid="ent0002" id="entity_User"><ellipse cx="34.3048" cy="610.8584" fill="#0D2622" rx="12.5" ry="12.5" style="stroke:#2B3A37;stroke-width:2.3438;"/><path d="M34.3048,623.3584 L34.3048,665.5459 M13.9923,635.8584 L54.6173,635.8584 M34.3048,665.5459 L13.9923,688.9834 M34.3048,665.5459 L54.6173,688.9834" fill="none" style="stroke:#2B3A37;stroke-width:2.3438;"/><text fill="#F2F4F3" font-family="'Helvetica Neue'" font-size="21.875" lengthAdjust="spacing" textLength="49.8596" x="9.375" y="728.8195">User</text></g><!--entity PM--><g class="entity" data-entity="PM" data-source-line="15" data-uid="ent0003" id="entity_PM"><ellipse cx="451.4862" cy="125.9521" fill="#0D2622" rx="12.5" ry="12.5" style="stroke:#2B3A37;stroke-width:2.3438;"/><path d="M451.4862,138.4521 L451.4862,180.6396 M431.1737,150.9521 L471.7987,150.9521 M451.4862,180.6396 L431.1737,204.0771 M451.4862,180.6396 L471.7987,204.0771" fill="none" style="stroke:#2B3A37;stroke-width:2.3438;"/><text fill="#F2F4F3" font-family="'Helvetica Neue'" font-size="21.875" lengthAdjust="spacing" textLength="197.4411" x="352.7656" y="243.9133">Management / PM</text></g><!--entity Cockpit--><g class="entity" data-entity="Cockpit" data-source-line="16" data-uid="ent0004" id="entity_Cockpit"><rect fill="#0D2622" height="113.4277" rx="14.0625" ry="14.0625" style="stroke:#2B3A37;stroke-width:0.7813;" width="422.9034" x="240.0469" y="371.1709"/><text fill="#F2F4F3" font-family="'Helvetica Neue'" font-size="21.875" lengthAdjust="spacing" textLength="193.6813" x="271.2969" y="422.7258">Protopipe Cockpit</text><text fill="#F2F4F3" font-family="'Helvetica Neue'" font-size="21.875" lengthAdjust="spacing" textLength="360.4034" x="271.2969" y="448.1896">(Experiments, KPIs, Governance)</text></g><!--entity GitLab--><g class="entity" data-entity="GitLab" data-source-line="17" data-uid="ent0005" id="entity_GitLab"><rect fill="#0D2622" height="138.8916" rx="14.0625" ry="14.0625" style="stroke:#2B3A37;stroke-width:0.7813;" width="319.7021" x="718.2031" y="358.4521"/><text fill="#F2F4F3" font-family="'Helvetica Neue'" font-size="21.875" lengthAdjust="spacing" textLength="139.2502" x="749.4531" y="410.007">GitLab CI/CD</text><text fill="#F2F4F3" font-family="'Helvetica Neue'" font-size="21.875" lengthAdjust="spacing" textLength="257.2021" x="749.4531" y="435.4709">(Feature Branch Builds,</text><text fill="#F2F4F3" font-family="'Helvetica Neue'" font-size="21.875" lengthAdjust="spacing" textLength="122.1924" x="749.4531" y="460.9348">Snapshots)</text></g><!--link User to Composer--><g class="link" data-entity-1="User" data-entity-2="Composer" data-source-line="29" data-uid="lnk13" id="link_User_Composer"><path d="M34.3125,749.7803 C34.3125,809.1396 34.3125,881.1396 34.3125,881.1396 C34.3125,881.1396 292.75,881.1396 479.5,881.1396" fill="none" id="User-to-Composer" style="stroke:#DE083D;stroke-width:2.3438;"/><polygon fill="#DE083D" points="488.875,881.1396,474.8125,874.8896,481.0625,881.1396,474.8125,887.3896,488.875,881.1396" style="stroke:#DE083D;stroke-width:2.3438;"/><text fill="#A9B4B0" font-family="'Helvetica Neue'" font-size="18.75" lengthAdjust="spacing" textLength="74.8444" x="50.6094" y="839.1688">HTTP(S)</text><text fill="#A9B4B0" font-family="'Helvetica Neue'" font-size="18.75" lengthAdjust="spacing" textLength="129.1992" x="50.6094" y="860.995">Page Request</text></g><!--link Composer to BE--><g class="link" data-entity-1="Composer" data-entity-2="BE" data-source-line="30" data-uid="lnk14" id="link_Composer_BE"><path d="M842.375,918.6396 C915.625,918.6396 983.8281,918.6396 983.8281,918.6396 C983.8281,918.6396 983.8281,990.0459 983.8281,1047.7803" fill="none" id="Composer-to-BE" style="stroke:#DE083D;stroke-width:2.3438;"/><polygon fill="#DE083D" points="983.8281,1057.1553,990.0781,1043.0928,983.8281,1049.3428,977.5781,1043.0928,983.8281,1057.1553" style="stroke:#DE083D;stroke-width:2.3438;"/><text fill="#A9B4B0" font-family="'Helvetica Neue'" font-size="18.75" lengthAdjust="spacing" textLength="117.7002" x="999.5469" y="953.2313">parallel calls</text><text fill="#A9B4B0" font-family="'Helvetica Neue'" font-size="18.75" lengthAdjust="spacing" textLength="260.2753" x="999.5469" y="975.0575">(GET/forwardBody optional)</text></g><!--link Composer to Bridge--><g class="link" data-entity-1="Composer" data-entity-2="Bridge" data-source-line="31" data-uid="lnk15" id="link_Composer_Bridge"><path d="M488.8594,918.6396 C404.3125,918.6396 321.2344,918.6396 321.2344,918.6396 C321.2344,918.6396 321.2344,990.0459 321.2344,1047.7803" fill="none" id="Composer-to-Bridge" style="stroke:#DE083D;stroke-width:2.3438;"/><polygon fill="#DE083D" points="321.2344,1057.1553,327.4844,1043.0928,321.2344,1049.3428,314.9844,1043.0928,321.2344,1057.1553" style="stroke:#DE083D;stroke-width:2.3438;"/><text fill="#A9B4B0" font-family="'Helvetica Neue'" font-size="18.75" lengthAdjust="spacing" textLength="140.1031" x="171.7188" y="953.2313">poll /messages</text><text fill="#A9B4B0" font-family="'Helvetica Neue'" font-size="18.75" lengthAdjust="spacing" textLength="148.0774" x="171.7188" y="975.0575">(optional client)</text></g><!--link Composer to Overwatch--><g class="link" data-entity-1="Composer" data-entity-2="Overwatch" data-source-line="32" data-uid="lnk16" id="link_Composer_Overwatch"><path d="M665.5625,957.4678 C665.5625,988.4521 665.5625,1017.1865 665.5625,1048.0771" fill="none" id="Composer-to-Overwatch" style="stroke:#DE083D;stroke-width:2.3438;"/><polygon fill="#DE083D" points="665.5625,1057.4521,671.8125,1043.3896,665.5625,1049.6396,659.3125,1043.3896,665.5625,1057.4521" style="stroke:#DE083D;stroke-width:2.3438;"/><text fill="#A9B4B0" font-family="'Helvetica Neue'" font-size="18.75" lengthAdjust="spacing" textLength="204.1168" x="445.25" y="987.3563">traces/events/metrics</text></g><!--link Composer to Store--><g class="link" data-entity-1="Composer" data-entity-2="Store" data-source-line="33" data-uid="lnk17" id="link_Composer_Store"><path d="M842.0156,881.1396 C1065.0469,881.1396 1420.25,881.1396 1420.25,881.1396 C1420.25,881.1396 1420.25,971.5615 1420.25,1040.5771" fill="none" id="Composer-to-Store" style="stroke:#DE083D;stroke-width:2.3438;"/><polygon fill="#DE083D" points="1420.25,1049.9521,1426.5,1035.8896,1420.25,1042.1396,1414,1035.8896,1420.25,1049.9521" style="stroke:#DE083D;stroke-width:2.3438;"/><text fill="#A9B4B0" font-family="'Helvetica Neue'" font-size="18.75" lengthAdjust="spacing" textLength="191.9769" x="1007.7188" y="839.1688">session/state lookup</text><text fill="#A9B4B0" font-family="'Helvetica Neue'" font-size="18.75" lengthAdjust="spacing" textLength="90.6189" x="1007.7188" y="860.995">(optional)</text></g><!--link PM to Cockpit--><g class="link" data-entity-1="PM" data-entity-2="Cockpit" data-source-line="34" data-uid="lnk18" id="link_PM_Cockpit"><path d="M451.5,265.1553 C451.5,299.4209 451.5,329.6396 451.5,361.2021" fill="none" id="PM-to-Cockpit" style="stroke:#DE083D;stroke-width:2.3438;"/><polygon fill="#DE083D" points="451.5,370.5771,457.75,356.5146,451.5,362.7646,445.25,356.5146,451.5,370.5771" style="stroke:#DE083D;stroke-width:2.3438;"/><text fill="#A9B4B0" font-family="'Helvetica Neue'" font-size="18.75" lengthAdjust="spacing" textLength="248.1079" x="187.4375" y="275.9032">define/toggle experiments</text><text fill="#A9B4B0" font-family="'Helvetica Neue'" font-size="18.75" lengthAdjust="spacing" textLength="88.0371" x="187.4375" y="297.7294">view KPIs</text></g><!--link Cockpit to Operator--><g class="link" data-entity-1="Cockpit" data-entity-2="Operator" data-source-line="35" data-uid="lnk19" id="link_Cockpit_Operator"><path d="M580.125,485.3115 C580.125,524.4834 580.125,566.7646 580.125,605.9365" fill="none" id="Cockpit-to-Operator" style="stroke:#DE083D;stroke-width:2.3438;"/><polygon fill="#DE083D" points="580.125,615.3115,586.375,601.249,580.125,607.499,573.875,601.249,580.125,615.3115" style="stroke:#DE083D;stroke-width:2.3438;"/><text fill="#A9B4B0" font-family="'Helvetica Neue'" font-size="18.75" lengthAdjust="spacing" textLength="293.1244" x="270.75" y="530.2157">create/update Experiment CRD</text></g><!--link GitLab to Operator--><g class="link" data-entity-1="GitLab" data-entity-2="Operator" data-source-line="36" data-uid="lnk20" id="link_GitLab_Operator"><path d="M776,498.0771 C776,535.249 776,570.9678 776,606.0146" fill="none" id="GitLab-to-Operator" style="stroke:#DE083D;stroke-width:2.3438;"/><polygon fill="#DE083D" points="776,615.3896,782.25,601.3271,776,607.5771,769.75,601.3271,776,615.3896" style="stroke:#DE083D;stroke-width:2.3438;"/><text fill="#A9B4B0" font-family="'Helvetica Neue'" font-size="18.75" lengthAdjust="spacing" textLength="169.0063" x="590.0625" y="591.3251">publish snapshots</text><text fill="#A9B4B0" font-family="'Helvetica Neue'" font-size="18.75" lengthAdjust="spacing" textLength="160.3821" x="590.0625" y="613.1512">(artifact registry)</text></g><!--link Operator to Composer--><g class="link" data-entity-1="Operator" data-entity-2="Composer" data-source-line="37" data-uid="lnk21" id="link_Operator_Composer"><path d="M665.5625,730.1553 C665.5625,764.5928 665.5625,798.9053 665.5625,833.3584" fill="none" id="Operator-to-Composer" style="stroke:#DE083D;stroke-width:2.3438;"/><polygon fill="#DE083D" points="665.5625,842.7334,671.8125,828.6709,665.5625,834.9209,659.3125,828.6709,665.5625,842.7334" style="stroke:#DE083D;stroke-width:2.3438;"/><text fill="#A9B4B0" font-family="'Helvetica Neue'" font-size="18.75" lengthAdjust="spacing" textLength="217.2913" x="431.1875" y="821.0282">resolved routing/config</text><text fill="#A9B4B0" font-family="'Helvetica Neue'" font-size="18.75" lengthAdjust="spacing" textLength="160.3363" x="431.1875" y="842.8544">(status/effective)</text></g><!--SRC=[TLF1RXen4BtxAoRR7e8IkWb4ILgfbLXOQ9IG820tBcPt00jZRsqlILJrtplsBYIWzWBeyTwRcUUP4w4oMUO8XT5E5wB0fbqBzQKeDv8nTl8v6S1tY3vTt5xoovk8W57dCNseiBnrtMfvxE7kCGrGQzxcxK3hLxf-gt_LRtjW-3nDUm7hV4skaWkFTRhTz74Qm1mlRjjv3RO2jBYvQbzZn9nm4c6qQn2QaBxoJI6HCPuvRU3Pegb_HaEk-18tg1p4C1f6m2rzCOEPusf9Fj6xKLTdwqAucJfDNmiqmgliEToFxkXpeBTe55SPDe99JVxeD13kWS-XUnTtUsJIH-vAWv0OKgqWAONCxVbCJHGlx4exMnbLAiQKfjYZ-t9EPT0XLP2bTMWY-Cq0_jdm4tN9QKmgrXtteFa3ngLor3TrfnPYMHNOiVxdqa-9lYaqfKP68ueB9fCndDMeS4AhtSmLxT1fYDPwKM94laIoY3SLOg7GKWfLzr7zVwXzeb1VkCjM97kQegGIKc9ukZD8j_xPEYPRYMsT-fxF3dqIdgrHvJ11inKPMhBhwGqN2ZhqUdNzb3GvTtpEBKacAsxGAwob0UE9uuu6fyf-XApA7lDA6c3sXp6_Mj2ae7THm3VuEPsEJYUDcGhHZV5NYTQnFS6pavHu1JUSXfEGqPVlS91EuuMcUKoUwFmDTE6Zvh9n90wvUGFA1lRXai5E09aK5DMHRfyLIPtXb4gCFb5B5iw8p1xImun4jNKWDWGYjLwNnOTQ3JOQrWc40o15ZWkXC7PwwTy2tszdfhO2Ny81iHqzT5Pl96apGrU2SLdaljhxtG4jDAiFwaXIb7Cfx0hixeweEswSMD39qquiXNNchS7sYgFdCcYrtDBB6rqwMiuu2xT29dxYaa9QB6Yn_Cgnlm00]--></g></svg>