<svg xmlns="http://www.w3.org/2000/svg" viewBox="0 0 1320 214" role="img" aria-label="Noesis culture runtime BPMN process across Leadership, Noesis, and Employee lanes">
  <defs>
    <marker id="runtime-arrow" viewBox="0 0 10 10" refX="9" refY="5" markerWidth="7" markerHeight="7" orient="auto">
      <path d="M 0 0 L 10 5 L 0 10 z" fill="#b9c3bf"/>
    </marker>
    <marker id="runtime-context-arrow" viewBox="0 0 10 10" refX="9" refY="5" markerWidth="7" markerHeight="7" orient="auto">
      <path d="M 0 0 L 10 5 L 0 10 z" fill="#f6c56f"/>
    </marker>
  </defs>

  <rect x="1" y="1" width="1318" height="212" fill="rgba(255,255,255,0.018)" stroke="rgba(255,255,255,0.18)" stroke-width="1.5"/>
  <rect x="1" y="1" width="178" height="70" fill="rgba(255,255,255,0.07)"/>
  <rect x="1" y="71" width="178" height="71" fill="rgba(247,67,110,0.1)"/>
  <rect x="1" y="142" width="178" height="71" fill="rgba(246,197,111,0.12)"/>
  <g stroke="rgba(255,255,255,0.13)" stroke-width="1.5">
    <line x1="1" y1="71" x2="1319" y2="71"/>
    <line x1="1" y1="142" x2="1319" y2="142"/>
    <line x1="179" y1="1" x2="179" y2="213"/>
  </g>

  <g font-family="Helvetica Neue, Inter, Arial, sans-serif" fill="#f4fbf8" font-weight="800">
    <text x="22" y="42" font-size="21">Leadership</text>
    <text x="22" y="113" font-size="21">Noesis</text>
    <text x="22" y="184" font-size="21">Employee</text>
  </g>

  <circle cx="216" cy="36" r="14" fill="rgba(255,255,255,0.03)" stroke="rgba(255,255,255,0.7)" stroke-width="3"/>
  <rect x="252" y="17" width="192" height="38" rx="7" fill="rgba(255,255,255,0.045)" stroke="rgba(255,255,255,0.58)" stroke-width="1.6"/>
  <rect x="488" y="88" width="246" height="38" rx="7" fill="rgba(247,67,110,0.1)" stroke="#f7436e" stroke-width="1.8"/>
  <circle cx="786" cy="107" r="14" fill="rgba(246,197,111,0.06)" stroke="#f6c56f" stroke-width="3"/>
  <circle cx="786" cy="107" r="9" fill="none" stroke="#f6c56f" stroke-width="1.5"/>

  <circle cx="216" cy="178" r="14" fill="rgba(255,255,255,0.03)" stroke="rgba(255,255,255,0.7)" stroke-width="3"/>
  <rect x="252" y="159" width="164" height="38" rx="7" fill="rgba(255,255,255,0.045)" stroke="rgba(255,255,255,0.58)" stroke-width="1.6"/>
  <rect x="850" y="88" width="226" height="38" rx="7" fill="rgba(247,67,110,0.1)" stroke="#f7436e" stroke-width="1.8"/>
  <rect x="1098" y="157" width="178" height="42" rx="7" fill="rgba(246,197,111,0.08)" stroke="#f6c56f" stroke-width="1.8"/>
  <circle cx="1302" cy="178" r="14" fill="rgba(246,197,111,0.06)" stroke="#f6c56f" stroke-width="3"/>
  <circle cx="1302" cy="178" r="9" fill="none" stroke="#f6c56f" stroke-width="1.5"/>

  <g font-family="Helvetica Neue, Inter, Arial, sans-serif" text-anchor="middle" fill="#f4fbf8" font-size="15" font-weight="760">
    <text x="348" y="41">Define lead culture</text>
    <text x="611" y="103">Audit AI-conform</text>
    <text x="611" y="119" font-size="13" fill="#b9c3bf">documentation (MCP)</text>
    <text x="334" y="183">Daily work</text>
    <text x="963" y="103">Review and suggest</text>
    <text x="963" y="119" font-size="13" fill="#b9c3bf">change</text>
    <text x="1187" y="174">Aligned work</text>
    <text x="1187" y="190" font-size="13">artifact</text>
  </g>

  <g fill="none" stroke="#b9c3bf" stroke-width="2.1" stroke-linecap="round" stroke-linejoin="round" marker-end="url(#runtime-arrow)">
    <path d="M230 36 H252"/>
    <path d="M444 36 H466 V107 H488"/>
    <path d="M734 107 H772"/>
    <path d="M230 178 H252"/>
    <path d="M416 178 H824 V107 H850"/>
    <path d="M1076 107 H1086 V178 H1098"/>
    <path d="M1276 178 H1288"/>
  </g>

  <path d="M786 93 V75 H963 V88" fill="none" stroke="#f6c56f" stroke-width="2" stroke-dasharray="7 6" marker-end="url(#runtime-context-arrow)"/>
  <text x="875" y="68" font-family="Helvetica Neue, Inter, Arial, sans-serif" text-anchor="middle" fill="#f6c56f" font-size="14" font-weight="800">audited context</text>
</svg>
